<svg xmlns="http://www.w3.org/2000/svg" viewBox="0 0 500 500" width="100%" height="100%">
  <g id="HalfLife_Lambda_Icon">
    
    <polygon points="250,50 400,135 400,315 250,400 100,315 100,135" 
             fill="#222222" 
             stroke="#F57C00" 
             stroke-width="8" 
             stroke-linejoin="round" />
             
    <circle cx="250" cy="225" r="120" 
            fill="#E65100" 
            stroke="#FFB74D" 
            stroke-width="5" 
            filter="drop-shadow(0px 0px 10px rgba(245, 124, 0, 0.6))" />
            
    <circle cx="250" cy="225" r="100" fill="#1A1A1A" />
    
    <path d="M 215 160 
             C 215 160, 240 160, 245 180 
             L 285 275 
             L 315 275 
             L 325 295 
             L 280 295 
             L 245 215 
             L 210 295 
             L 175 295 
             L 185 275 
             L 215 205 Z" 
          fill="#F57C00" 
          stroke="#FFB74D" 
          stroke-width="2" />
          
    <path d="M 245 215 L 280 295 L 245 295 Z" fill="#F57C00" />
    
    <g opacity="0.8">
      <polygon points="160,350 180,335 200,355 180,370" fill="#F57C00" />
      <polygon points="340,350 320,335 300,355 320,370" fill="#F57C00" />
    </g>
    
  </g>
</svg>
