<svg width="48.0" height="48.0" viewBox="3.0 3.0 42.0 43.0" xmlns="http://www.w3.org/2000/svg"  >
  <defs>
    <linearGradient id="btnBorder" x1="0%" y1="0%" x2="0%" y2="100%">
      <stop offset="0%" stop-color="#ffffff" stop-opacity="0.4"/>
      <stop offset="100%" stop-color="#000000" stop-opacity="0.6"/>
    </linearGradient>
    
    <linearGradient id="btnBg" x1="0%" y1="0%" x2="0%" y2="100%">
      <stop offset="0%" stop-color="#475569" />
      <stop offset="100%" stop-color="#1e293b" />
    </linearGradient>

    <linearGradient id="goldArcade" x1="0%" y1="0%" x2="0%" y2="100%">
      <stop offset="0%" stop-color="#fffde6" />
      <stop offset="40%" stop-color="#fef08a" />
      <stop offset="100%" stop-color="#ca8a04" />
    </linearGradient>
  </defs>
  
  <circle cx="24" cy="25" r="20" fill="#000000" opacity="0.4"/>
  
  <circle cx="24" cy="24" r="20" fill="url(#btnBorder)" stroke="#0f172a" stroke-width="1.5"/>
  
  <circle cx="24" cy="24" r="17.5" fill="url(#btnBg)"/>
  
  <circle cx="24" cy="24" r="16" fill="none" stroke="#ffffff" stroke-opacity="0.15" stroke-width="1"/>

  <g stroke="#0f172a" stroke-width="1.2" stroke-linejoin="round" stroke-linecap="round">
    
    <path d="M 24 11 L 27 19 L 25 18 L 25 28 L 23 28 L 23 18 L 21 19 Z" 
          fill="#ffffff" opacity="0.9"/>

    <path d="M 23 29 
             C 17 29, 12 25, 8 16 
             C 12 20, 17 21, 21 21
             C 16 23, 13 24, 11 21
             C 14 25, 18 26, 22 25
             C 19 27, 16 28, 14 26
             C 17 29, 20 29, 23 28 Z" 
          fill="url(#goldArcade)"/>

    <path d="M 25 29 
             C 31 29, 36 25, 40 16 
             C 36 20, 31 21, 27 21
             C 32 23, 35 24, 37 21
             C 34 25, 30 26, 26 25
             C 29 27, 32 28, 34 26
             C 31 29, 28 29, 25 28 Z" 
          fill="url(#goldArcade)"/>

    <path d="M 16 31
             C 14 31, 13 29, 14 27
             C 14 25, 17 24, 19 25
             C 20 23, 23 22, 25 23
             C 27 24, 28 26, 28 28
             C 30 27, 33 28, 33 30
             C 33 32, 31 33, 29 33
             C 27 34, 21 34, 16 31 Z" 
          fill="#e2e8f0"/>
          
    <path d="M 17 28 C 18 26, 22 25, 24 26" fill="none" stroke="#ffffff" stroke-width="0.8" opacity="0.6"/>
  </g>
</svg>
