<svg xmlns="http://www.w3.org/2000/svg" viewBox="0 0 500 500" width="100%" height="100%">
  <g id="Mario_Theme_Icon">
    
    <circle cx="250" cy="250" r="180" fill="#1E56A0" stroke="#113F7A" stroke-width="6" />
    
    <circle cx="250" cy="250" r="155" fill="#E63946" />
    
    <circle cx="195" cy="210" r="22" fill="#FFB703" filter="drop-shadow(0px 4px 4px rgba(0,0,0,0.25))" />
    <circle cx="305" cy="210" r="22" fill="#FFB703" filter="drop-shadow(0px 4px 4px rgba(0,0,0,0.25))" />
    
    <path d="M 50 280 
             C 90 280, 120 250, 160 250 
             C 190 250, 210 275, 250 275 
             C 290 275, 310 250, 340 250 
             C 380 250, 410 280, 450 280 
             C 420 330, 360 330, 320 310
             C 290 295, 270 300, 250 300
             C 230 300, 210 295, 180 310
             C 140 330, 80 330, 50 280 Z" 
          fill="#222222" 
          stroke="#111111" 
          stroke-width="4"
          filter="drop-shadow(0px 6px 5px rgba(0,0,0,0.3))" />
          
  </g>
</svg>
